PathFileType	4	(X/Y/Z)	C:\Users\italobelli\Desktop\GitHub\PTbot_officialCBL\Personal_Results\SHRUG23_noisy1.trc
DataRate	CameraRate	NumFrames	NumMarkers	Units	OrigDataRate	OrigDataStartFrame	OrigNumFrames
108.909091	108.909091	25	9	m	108.909091	526	600
Frame#	Time		gu		centelbow		EpL		centpxt8		centijc7		ij		ts		aa		ai
			X1	Y1	Z1	X2	Y2	Z2	X3	Y3	Z3	X4	Y4	Z4	X5	Y5	Z5	X6	Y6	Z6	X7	Y7	Z7	X8	Y8	Z8	X9	Y9	Z9

526	4.8205	-0.10073	-0.013066	0.16251	-0.14556	-0.25485	0.17693	-0.12968	-0.25144	0.20482	-0.046816	-0.15316	-0.008669	-0.046816	0.031938	-0.008669	0	0	0	-0.1387	0.033793	0.045482	-0.12398	0.026633	0.16361	-0.16482	-0.07665	0.047316
527	4.8297	-0.10069	-0.013073	0.16248	-0.14579	-0.25464	0.17688	-0.12991	-0.25122	0.20476	-0.046816	-0.15316	-0.008669	-0.046816	0.031938	-0.008669	0	0	0	-0.13869	0.033773	0.045506	-0.12394	0.026622	0.16363	-0.1648	-0.076673	0.047352
528	4.8389	-0.10064	-0.013081	0.16245	-0.14602	-0.25443	0.17683	-0.13014	-0.251	0.2047	-0.046816	-0.15316	-0.008669	-0.046816	0.031938	-0.008669	0	0	0	-0.13869	0.033753	0.04553	-0.12391	0.02661	0.16365	-0.16478	-0.076696	0.047389
529	4.8481	-0.1006	-0.013088	0.16242	-0.14624	-0.25422	0.17677	-0.13036	-0.25079	0.20465	-0.046816	-0.15316	-0.008669	-0.046816	0.031938	-0.008669	0	0	0	-0.13868	0.033733	0.045554	-0.12387	0.026599	0.16367	-0.16476	-0.076719	0.047424
530	4.8573	-0.10055	-0.013096	0.16239	-0.14646	-0.25401	0.17672	-0.13058	-0.25058	0.20459	-0.046816	-0.15316	-0.008669	-0.046816	0.031938	-0.008669	0	0	0	-0.13867	0.033714	0.045578	-0.12383	0.026588	0.16369	-0.16474	-0.076742	0.047459
531	4.8664	-0.10051	-0.013103	0.16237	-0.14668	-0.25381	0.17667	-0.1308	-0.25037	0.20454	-0.046816	-0.15316	-0.008669	-0.046816	0.031938	-0.008669	0	0	0	-0.13866	0.033694	0.045601	-0.1238	0.026576	0.16371	-0.16472	-0.076764	0.047493
532	4.8756	-0.10046	-0.013111	0.16234	-0.14689	-0.25362	0.17663	-0.13101	-0.25017	0.20449	-0.046816	-0.15316	-0.008669	-0.046816	0.031938	-0.008669	0	0	0	-0.13866	0.033675	0.045623	-0.12376	0.026565	0.16373	-0.1647	-0.076786	0.047526
533	4.8848	-0.10041	-0.013118	0.16232	-0.14709	-0.25343	0.17658	-0.13121	-0.24997	0.20444	-0.046816	-0.15316	-0.008669	-0.046816	0.031938	-0.008669	0	0	0	-0.13865	0.033656	0.045645	-0.12372	0.026554	0.16375	-0.16468	-0.076808	0.047559
534	4.894	-0.10037	-0.013126	0.16229	-0.14729	-0.25324	0.17653	-0.13141	-0.24978	0.20439	-0.046816	-0.15316	-0.008669	-0.046816	0.031938	-0.008669	0	0	0	-0.13864	0.033638	0.045666	-0.12369	0.026543	0.16377	-0.16466	-0.07683	0.047591
535	4.9032	-0.10032	-0.013133	0.16227	-0.14748	-0.25306	0.17649	-0.1316	-0.2496	0.20434	-0.046816	-0.15316	-0.008669	-0.046816	0.031938	-0.008669	0	0	0	-0.13863	0.03362	0.045687	-0.12365	0.026532	0.16379	-0.16464	-0.076852	0.047621
536	4.9124	-0.10027	-0.01314	0.16225	-0.14767	-0.25288	0.17645	-0.13179	-0.24942	0.2043	-0.046816	-0.15316	-0.008669	-0.046816	0.031938	-0.008669	0	0	0	-0.13862	0.033602	0.045707	-0.12362	0.02652	0.1638	-0.16462	-0.076873	0.047651
537	4.9215	-0.10023	-0.013148	0.16223	-0.14784	-0.25271	0.17641	-0.13196	-0.24924	0.20425	-0.046816	-0.15316	-0.008669	-0.046816	0.031938	-0.008669	0	0	0	-0.13861	0.033585	0.045726	-0.12358	0.026509	0.16382	-0.1646	-0.076893	0.04768
538	4.9307	-0.10018	-0.013155	0.16221	-0.14801	-0.25255	0.17637	-0.13213	-0.24907	0.20421	-0.046816	-0.15316	-0.008669	-0.046816	0.031938	-0.008669	0	0	0	-0.1386	0.033568	0.045745	-0.12355	0.026498	0.16384	-0.16457	-0.076914	0.047707
539	4.9399	-0.10013	-0.013163	0.16219	-0.14817	-0.2524	0.17633	-0.13229	-0.24891	0.20417	-0.046816	-0.15316	-0.008669	-0.046816	0.031938	-0.008669	0	0	0	-0.13859	0.033552	0.045763	-0.12351	0.026488	0.16385	-0.16455	-0.076934	0.047733
540	4.9491	-0.10008	-0.01317	0.16217	-0.14832	-0.25225	0.1763	-0.13243	-0.24876	0.20414	-0.046816	-0.15316	-0.008669	-0.046816	0.031938	-0.008669	0	0	0	-0.13858	0.033536	0.04578	-0.12348	0.026477	0.16387	-0.16453	-0.076953	0.047759
541	4.9583	-0.10004	-0.013177	0.16216	-0.14845	-0.25211	0.17627	-0.13257	-0.24862	0.2041	-0.046816	-0.15316	-0.008669	-0.046816	0.031938	-0.008669	0	0	0	-0.13857	0.033521	0.045797	-0.12344	0.026466	0.16388	-0.1645	-0.076972	0.047782
542	4.9674	-0.099987	-0.013184	0.16215	-0.14858	-0.25197	0.17624	-0.1327	-0.24848	0.20407	-0.046816	-0.15316	-0.008669	-0.046816	0.031938	-0.008669	0	0	0	-0.13856	0.033506	0.045813	-0.12341	0.026456	0.1639	-0.16448	-0.07699	0.047805
543	4.9766	-0.099939	-0.013192	0.16214	-0.1487	-0.25185	0.17621	-0.13282	-0.24835	0.20404	-0.046816	-0.15316	-0.008669	-0.046816	0.031938	-0.008669	0	0	0	-0.13855	0.033492	0.045828	-0.12337	0.026445	0.16391	-0.16446	-0.077008	0.047826
544	4.9858	-0.09989	-0.013199	0.16213	-0.14881	-0.25173	0.17618	-0.13292	-0.24823	0.20402	-0.046816	-0.15316	-0.008669	-0.046816	0.031938	-0.008669	0	0	0	-0.13854	0.033479	0.045842	-0.12334	0.026435	0.16392	-0.16443	-0.077026	0.047846
545	4.995	-0.099842	-0.013206	0.16212	-0.1489	-0.25162	0.17616	-0.13301	-0.24813	0.20399	-0.046816	-0.15316	-0.008669	-0.046816	0.031938	-0.008669	0	0	0	-0.13853	0.033467	0.045855	-0.12331	0.026425	0.16393	-0.1644	-0.077042	0.047865
546	5.0042	-0.099793	-0.013213	0.16212	-0.14899	-0.25153	0.17614	-0.1331	-0.24803	0.20397	-0.046816	-0.15316	-0.008669	-0.046816	0.031938	-0.008669	0	0	0	-0.13851	0.033455	0.045868	-0.12328	0.026414	0.16394	-0.16438	-0.077058	0.047882
547	5.0134	-0.099743	-0.01322	0.16211	-0.14906	-0.25143	0.17613	-0.13317	-0.24793	0.20396	-0.046816	-0.15316	-0.008669	-0.046816	0.031938	-0.008669	0	0	0	-0.1385	0.033443	0.045879	-0.12324	0.026404	0.16395	-0.16435	-0.077074	0.047898
548	5.0225	-0.099694	-0.013228	0.16211	-0.14912	-0.25133	0.17613	-0.13323	-0.24783	0.20396	-0.046816	-0.15316	-0.008669	-0.046816	0.031938	-0.008669	0	0	0	-0.13849	0.033431	0.04589	-0.12321	0.026394	0.16396	-0.16432	-0.07709	0.047913
549	5.0317	-0.099643	-0.013235	0.16211	-0.14918	-0.25124	0.17614	-0.13328	-0.24773	0.20396	-0.046816	-0.15316	-0.008669	-0.046816	0.031938	-0.008669	0	0	0	-0.13848	0.033419	0.0459	-0.12318	0.026384	0.16397	-0.1643	-0.077106	0.047927
550	5.0409	-0.099592	-0.013242	0.16211	-0.14923	-0.25115	0.17615	-0.13333	-0.24764	0.20398	-0.046816	-0.15316	-0.008669	-0.046816	0.031938	-0.008669	0	0	0	-0.13846	0.033407	0.04591	-0.12315	0.026374	0.16398	-0.16427	-0.077122	0.047941
